# xmcd CD database file
#
# Track frame offsets:
#	150
#	35435
#	53885
#	69180
#	88664
#	114474
#	131649
#	146724
#	168979
#	179936
#	198778
#
# Disc length: 2791 seconds
#
# Revision: 1
# Processed by: cddbd v1.5.2PL0 Copyright (c) Steve Scherf et al.
# Submitted via: CDex 1.51
#
DISCID=9d0ae50b
DTITLE=Mozart - Symphonies N°14, N°21, N°24
DYEAR=1900
DGENRE=Classique
TTITLE0=Symphonie N°14 en la majeur KV.114 - I. Allegro moderato [Thomas Fey, Schlierbacher Kammerorchester]
TTITLE1=Symphonie N°14 en la majeur KV.114 - II. Andante
TTITLE2=Symphonie N°14 en la majeur KV.114 - III. Menuetto
TTITLE3=Symphonie N°14 en la majeur KV.114 - IV. Molto allegro
TTITLE4=Symphonie N°21 en la majeur KV.134 - I. Allegro
TTITLE5=Symphonie N°21 en la majeur KV.134 - II. Andante
TTITLE6=Symphonie N°21 en la majeur KV.134 - III. Menuetto
TTITLE7=Symphonie N°21 en la majeur KV.134 - IV. Allegro
TTITLE8=Symphonie N°24 en si bémol majeur KV.182 - I. Allegro spiritoso [Alexander von Pitamic, Mozart Festival Orch]
TTITLE9=Symphonie N°24 en si bémol majeur KV.182 - II. Andantino gracioso
TTITLE10=Symphonie N°24 en si bémol majeur KV.182 - III. Allegro
EXTD=
EXTT0=
EXTT1=
EXTT2=
EXTT3=
EXTT4=
EXTT5=
EXTT6=
EXTT7=
EXTT8=
EXTT9=
EXTT10=
PLAYORDER=
